<?xml version="1.0" standalone="no"?>
<!DOCTYPE svg PUBLIC "-//W3C//DTD SVG 20010904//EN"
 "http://www.w3.org/TR/2001/REC-SVG-20010904/DTD/svg10.dtd">
<svg version="1.0" xmlns="http://www.w3.org/2000/svg"
 width="1024.000000pt" height="849.000000pt" viewBox="0 0 1024.000000 849.000000"
 preserveAspectRatio="xMidYMid meet">

<g transform="translate(0.000000,849.000000) scale(0.100000,-0.100000)"
fill="#000000" stroke="none">
<path d="M4236 7749 c-161 -38 -304 -193 -335 -363 -7 -40 -11 -318 -11 -823
l0 -764 23 -20 c12 -12 62 -47 110 -79 49 -32 129 -92 178 -134 48 -42 91 -76
94 -76 3 0 5 408 5 908 0 805 2 910 16 930 l15 22 594 0 c542 0 603 -2 707
-19 344 -59 637 -226 854 -486 88 -105 126 -166 190 -299 95 -199 138 -388
138 -616 0 -290 -78 -544 -242 -788 -31 -46 -60 -86 -65 -89 -11 -7 -155 64
-327 160 l-135 76 -6 118 c-7 139 -25 197 -82 271 -50 66 -112 109 -189 134
-53 16 -96 18 -381 18 -347 0 -387 -5 -470 -53 -60 -35 -124 -108 -155 -175
-19 -42 -28 -85 -36 -165 l-10 -109 -77 -38 c-42 -22 -119 -63 -170 -92 -160
-91 -126 -99 -296 70 -307 305 -639 476 -1068 548 -125 21 -413 24 -545 5
-934 -131 -1638 -886 -1709 -1831 -12 -157 1 -337 35 -512 99 -507 393 -947
827 -1239 748 -502 1755 -422 2399 190 104 99 221 234 212 244 -4 3 -130 4
-282 1 l-276 -5 -86 -65 c-167 -126 -425 -234 -648 -270 -111 -18 -346 -20
-452 -4 -594 90 -1088 522 -1254 1097 -63 222 -79 486 -42 703 45 262 165 528
326 725 227 277 559 478 901 547 161 32 437 32 586 0 271 -59 516 -185 719
-370 78 -70 77 -76 -14 -87 -77 -10 -102 -23 -102 -54 0 -56 73 -127 152 -146
15 -4 34 -17 42 -30 19 -29 85 -61 156 -76 43 -9 64 -20 93 -50 46 -48 98 -75
178 -93 130 -31 94 -36 -237 -36 -350 0 -415 -8 -505 -56 -100 -55 -177 -165
-200 -289 -6 -36 -9 -180 -7 -384 3 -284 6 -332 22 -376 41 -114 126 -202 238
-248 51 -21 68 -22 568 -27 l515 -5 5 -515 c6 -560 4 -540 65 -645 33 -55 110
-126 169 -155 53 -25 137 -40 234 -40 l72 0 0 -39 c0 -83 34 -124 88 -106 24
7 42 53 42 105 l0 37 163 6 c101 3 180 11 211 21 108 33 210 134 257 254 23
56 23 62 23 567 l1 510 520 5 c587 6 563 3 668 86 67 52 119 128 142 206 14
48 16 108 13 425 l-3 368 -32 67 c-51 108 -144 186 -258 217 -25 6 -187 11
-428 12 -214 0 -387 5 -387 9 0 5 19 14 43 20 107 26 194 71 223 115 10 16 29
25 62 30 58 8 129 39 160 68 13 12 51 35 85 52 66 33 118 92 120 139 2 29 12
34 21 10 9 -24 -30 -99 -67 -130 -18 -15 -52 -36 -77 -47 -39 -17 -121 -77
-105 -77 3 0 47 23 97 51 143 79 164 107 160 212 -2 46 13 84 87 227 5 9 12
31 16 50 4 21 -14 -7 -45 -69 -28 -57 -60 -117 -71 -132 -10 -15 -19 -34 -19
-43 0 -16 -25 -22 -33 -8 -3 4 13 36 35 72 100 161 196 414 230 600 30 168 30
475 0 653 -42 247 -167 547 -309 746 -248 346 -615 594 -1036 702 -182 46
-234 49 -927 48 -360 -1 -672 -5 -694 -10z m56 -408 c-9 -16 -18 -28 -20 -27
-5 6 21 56 29 56 5 0 0 -13 -9 -29z m1427 -1587 c13 -12 12 -13 -10 -8 -39 9
-563 4 -623 -6 -109 -18 -205 -90 -248 -186 -10 -24 -22 -79 -26 -122 -10
-113 -27 -88 -26 38 1 111 9 138 62 207 26 35 77 71 127 89 47 18 725 7 744
-12z m-347 -374 c69 -20 128 -120 113 -191 -14 -63 -84 -119 -150 -119 -107 0
-184 102 -155 206 14 50 44 81 97 99 47 17 49 17 95 5z m-167 -30 c-16 -16
-31 -28 -33 -25 -7 7 39 55 52 55 5 0 -3 -13 -19 -30z m-265 -80 c19 -10 34
-23 33 -29 -2 -6 2 -10 8 -8 6 1 20 -10 32 -26 17 -22 22 -47 27 -132 5 -84
10 -108 25 -125 23 -25 87 -60 110 -60 25 0 17 -29 -10 -36 -33 -8 -75 10
-115 49 -48 47 -60 69 -76 138 -17 74 -46 116 -90 135 -70 29 -142 9 -296 -84
-113 -68 -188 -102 -230 -104 -41 -1 -110 20 -106 33 2 6 51 34 108 63 58 29
171 87 252 129 81 42 160 78 175 80 45 8 115 -3 153 -23z m991 -4 c31 -12 130
-63 220 -113 90 -49 180 -96 199 -103 59 -23 65 -32 29 -47 -68 -28 -118 -13
-314 100 -110 64 -195 103 -195 91 0 -2 -10 0 -21 7 -17 9 -20 8 -13 -3 6 -11
5 -11 -9 1 -12 9 -17 10 -17 2 0 -7 -4 -10 -8 -7 -5 3 -26 -12 -47 -34 -21
-22 -43 -36 -48 -33 -6 3 -7 1 -3 -5 10 -17 -32 -151 -60 -193 -28 -41 -83
-74 -136 -82 -34 -5 -38 -3 -38 16 0 17 13 28 52 47 79 38 91 61 98 185 5 93
9 107 30 131 70 74 161 87 281 40z m-271 -11 c-18 -19 -36 -32 -39 -29 -6 6
54 64 66 64 4 0 -8 -16 -27 -35z m-806 -99 c45 -19 73 -57 87 -121 28 -124 92
-195 199 -217 l60 -12 0 -80 c0 -81 -14 -116 -47 -116 -16 0 -15 -3 -4 38 12
41 8 40 -18 -3 -18 -31 -25 -35 -61 -35 -22 0 -40 2 -40 5 0 3 16 27 35 54 37
51 73 127 55 116 -5 -3 -28 -33 -51 -66 -52 -76 -89 -101 -144 -92 -22 3 -43
8 -47 12 -4 4 29 44 73 90 94 96 99 123 6 34 -99 -95 -147 -110 -215 -66 -23
14 -23 15 40 55 74 48 150 109 144 115 -2 3 -40 -18 -83 -46 -105 -69 -139
-79 -197 -57 -77 29 -77 40 1 79 80 40 252 147 236 147 -6 0 -68 -28 -137 -61
-104 -52 -134 -62 -178 -62 -63 0 -141 28 -118 43 8 5 25 10 37 10 25 0 170
73 193 97 17 18 19 18 -83 -30 -117 -55 -197 -71 -197 -38 0 5 33 27 73 49 39
21 110 61 157 88 86 51 154 83 178 83 7 1 27 -5 46 -13z m1097 -26 c31 -15 88
-49 129 -75 40 -25 97 -58 126 -73 30 -14 54 -30 54 -34 0 -27 -144 14 -272
78 -76 38 -97 44 -53 13 50 -34 177 -96 225 -110 62 -17 67 -25 30 -44 -62
-32 -138 -18 -288 54 -72 35 -137 61 -143 59 -13 -4 204 -136 261 -158 19 -7
39 -17 45 -22 13 -11 -51 -68 -76 -68 -32 0 -101 32 -187 88 -46 29 -86 51
-88 49 -8 -8 96 -96 157 -134 33 -20 59 -40 59 -44 0 -14 -41 -31 -77 -31 -39
0 -87 29 -159 96 -27 25 -53 46 -57 46 -18 0 17 -42 88 -108 82 -75 82 -82 3
-82 -49 0 -80 21 -138 94 -24 30 -46 54 -48 52 -6 -6 28 -67 65 -118 l35 -48
-37 0 c-28 0 -43 7 -67 33 l-30 32 7 -32 c8 -38 -5 -43 -35 -13 -16 16 -20 33
-20 84 0 72 6 96 24 96 39 0 122 36 157 67 43 39 64 80 80 154 13 62 43 107
82 124 39 18 75 12 148 -25z m-531 -100 c2 0 -5 -7 -16 -15 -21 -14 -21 -25
-28 -382 -4 -202 -9 -435 -12 -518 -2 -82 -4 -156 -4 -162 0 -9 -15 -13 -44
-13 l-43 0 -7 148 c-5 107 -23 779 -26 938 0 7 30 9 88 7 48 -1 89 -3 92 -3z
m-1190 -28 c0 -13 52 -40 92 -47 52 -10 55 -31 8 -55 -112 -57 -288 -110 -367
-110 -60 0 -152 31 -178 60 -10 11 -16 22 -14 25 3 2 40 11 83 20 43 9 140 38
215 65 141 50 161 55 161 42z m1179 -443 c-7 -246 -16 -448 -21 -454 -6 -6 -8
7 -4 35 3 25 8 227 12 450 6 373 8 429 20 417 3 -2 -1 -204 -7 -448z m1196
391 c84 -27 184 -55 224 -62 39 -7 71 -16 71 -20 0 -13 -75 -56 -121 -68 -55
-15 -118 -8 -234 26 -208 60 -289 113 -197 129 21 3 52 15 68 25 16 10 31 19
33 19 3 1 73 -21 156 -49z m-2107 -120 l37 -6 -60 -31 c-117 -59 -203 -85
-311 -90 -79 -5 -112 -2 -152 11 -29 10 -52 21 -52 26 0 4 30 13 68 20 86 16
219 60 301 99 l64 30 34 -26 c19 -15 51 -29 71 -33z m1853 16 c86 -40 194 -73
293 -91 l71 -12 -34 -15 c-19 -9 -53 -14 -75 -12 -37 3 -38 2 -11 -5 56 -16
-115 -12 -184 4 -69 17 -261 94 -261 106 0 4 15 10 33 13 17 4 43 15 57 26 14
11 28 20 31 20 3 0 39 -15 80 -34z m-1777 -95 l28 -29 -23 -16 c-57 -36 -200
-96 -251 -104 -61 -9 -117 3 -146 32 -13 13 -13 16 -1 19 8 2 52 13 99 24 47
12 121 39 165 61 44 22 85 41 91 41 5 1 23 -12 38 -28z m1653 -20 c90 -40 175
-68 227 -73 40 -4 42 -20 5 -40 -60 -35 -152 -16 -313 63 l-88 44 27 22 c14
13 33 23 41 23 7 0 53 -18 101 -39z m-1554 -45 l37 -23 -37 -24 c-86 -56 -164
-83 -256 -87 -116 -6 -131 9 -40 37 37 11 109 43 158 70 50 27 92 49 95 50 3
0 22 -10 43 -23z m1433 -18 c38 -23 107 -57 154 -74 63 -24 80 -34 67 -40 -25
-9 -133 3 -160 18 -12 7 -28 11 -34 10 -7 -2 -13 1 -13 7 0 5 -21 17 -47 27
-27 9 -52 21 -57 26 -6 4 -18 8 -27 8 -34 0 -29 19 8 39 21 11 39 20 39 21 1
0 33 -19 70 -42z m-1314 -47 c25 -10 71 -25 103 -32 l58 -13 -46 -42 c-26 -23
-67 -52 -92 -64 -53 -26 -170 -46 -209 -36 -29 7 -27 26 3 26 28 0 132 57 176
96 44 39 34 37 -33 -8 -23 -16 -72 -43 -108 -60 -53 -25 -72 -29 -108 -24 -24
4 -52 13 -62 20 -17 13 -15 15 26 26 51 14 159 67 210 104 19 14 36 25 37 26
1 0 21 -8 45 -19z m1204 -36 c43 -25 99 -52 124 -61 93 -33 88 -29 61 -43 -56
-31 -160 -4 -265 68 -53 37 -83 41 -41 6 42 -35 123 -80 170 -95 34 -11 37
-14 20 -21 -32 -12 -105 2 -173 32 -34 15 -66 28 -70 29 -8 1 -44 26 -80 56
l-26 22 43 7 c24 4 62 16 85 26 23 10 48 19 57 19 8 0 51 -20 95 -45z m-802
-32 c-4 -16 -13 -35 -22 -43 -13 -13 -14 -13 -7 0 5 9 4 12 -1 7 -5 -5 -9 -14
-9 -20 0 -7 -20 -22 -45 -35 -36 -18 -59 -22 -115 -21 -38 1 -76 4 -83 7 -8 3
6 25 40 61 l53 56 85 6 c47 3 91 6 98 7 9 1 10 -6 6 -25z m391 16 l80 -1 50
-56 49 -57 -62 -8 c-86 -10 -133 4 -193 60 -53 50 -64 79 -26 69 12 -3 58 -6
102 -7z m-1082 -168 c22 -22 -84 -30 -428 -33 l-360 -3 -65 -31 c-152 -73
-196 -172 -199 -444 -1 -68 -4 -126 -6 -129 -5 -4 -11 257 -9 364 2 128 123
263 253 284 59 10 804 2 814 -8z m507 -62 c53 -24 104 -70 121 -111 10 -25 9
-32 -4 -45 -14 -15 -18 -15 -41 0 -29 19 -66 22 -66 6 0 -6 6 -9 14 -6 8 3 22
-3 32 -14 17 -18 16 -19 -12 -19 -16 0 -40 -3 -54 -5 -22 -5 -23 -4 -5 5 17 9
14 10 -13 5 -20 -3 -31 -1 -27 5 3 6 0 10 -8 10 -8 0 -35 11 -61 25 -85 45
-161 25 -186 -49 -9 -27 -8 -42 6 -75 14 -34 27 -47 88 -81 106 -58 195 -75
521 -100 159 -12 273 -37 360 -80 61 -29 129 -86 120 -100 -3 -4 5 -29 16 -55
46 -103 18 -226 -70 -308 -80 -75 -130 -99 -336 -162 -202 -61 -305 -139 -320
-239 -7 -47 6 -111 30 -141 16 -19 16 -19 10 5 -6 23 -5 22 13 -6 11 -17 38
-45 61 -63 l41 -33 -52 -34 c-28 -19 -53 -32 -57 -29 -3 3 1 10 9 15 8 6 10
10 4 10 -20 0 -88 60 -122 108 -26 35 -33 41 -28 22 3 -14 -4 -5 -16 20 -31
66 -28 164 7 235 50 104 142 161 390 245 77 26 160 57 185 70 84 42 130 100
130 164 0 49 -14 79 -52 115 -18 17 -29 31 -24 31 5 0 29 -21 53 -47 23 -26
43 -41 43 -33 0 7 -24 37 -52 65 -86 82 -173 104 -506 125 -252 16 -385 57
-486 150 -24 22 -46 37 -49 34 -9 -10 -37 53 -47 107 -7 35 -6 65 1 94 38 150
271 236 439 164z m878 4 c57 -19 138 -68 135 -82 -2 -6 7 -30 19 -53 29 -54
28 -128 0 -184 -29 -58 -114 -131 -199 -171 l-71 -34 -50 25 c-27 14 -70 30
-96 37 -53 13 -67 26 -34 33 215 45 228 49 287 97 63 50 78 113 36 154 -31 32
-64 32 -140 0 -41 -17 -79 -25 -122 -25 -70 0 -87 12 -43 30 17 7 30 16 30 21
0 13 -16 11 -55 -6 -34 -13 -36 -13 -51 10 -14 21 -14 26 0 54 16 29 59 67
104 90 60 31 163 33 250 4z m-1275 -59 c-20 -21 -45 -52 -55 -69 -24 -40 -23
-24 2 24 18 36 78 97 86 88 3 -2 -12 -21 -33 -43z m154 -95 c-10 -6 -27 -25
-38 -42 -18 -28 -20 -29 -14 -7 7 27 40 60 59 60 6 0 3 -5 -7 -11z m118 -17
c-3 -3 -11 0 -18 7 -9 10 -8 11 6 5 10 -3 15 -9 12 -12z m1194 -149 c-17 -65
-101 -149 -190 -191 -70 -34 -94 -39 -104 -22 -3 6 2 10 12 10 35 0 144 60
194 107 51 48 89 107 89 139 0 10 3 14 6 11 4 -4 1 -28 -7 -54z m-692 -50 c-2
-21 -4 -6 -4 32 0 39 2 55 4 38 2 -18 2 -50 0 -70z m-746 -25 c11 -21 11 -22
-4 -9 -10 7 -17 17 -17 22 0 15 9 10 21 -13z m80 -75 c13 -16 12 -17 -3 -4
-17 13 -22 21 -14 21 2 0 10 -8 17 -17z m98 -43 c87 -34 175 -48 397 -64 208
-16 296 -31 355 -61 47 -25 34 -24 -38 2 -56 20 -110 28 -308 44 -135 11 -273
28 -315 39 -76 19 -150 46 -150 55 0 7 -1 7 59 -15z m144 -105 c43 -8 81 -15
85 -15 3 0 -13 -16 -36 -36 -24 -20 -49 -49 -57 -65 -29 -55 -13 -154 30 -189
17 -14 18 -13 12 4 -5 12 6 5 30 -17 33 -32 149 -97 173 -97 26 0 3 -19 -70
-58 -75 -40 -82 -42 -102 -27 -12 8 -18 15 -12 15 5 0 15 -5 21 -11 12 -12 33
-4 33 12 0 6 -4 8 -9 5 -22 -14 -174 109 -213 173 -12 20 -28 41 -35 46 -23
17 -27 107 -8 164 15 47 58 111 73 111 4 0 42 -7 85 -15z m90 -51 c-48 -37
-74 -79 -83 -132 l-8 -47 -1 43 c0 24 6 56 13 71 17 32 81 91 99 91 7 0 -2
-12 -20 -26z m325 10 c14 -4 16 -95 6 -241 l-7 -90 -45 -16 c-25 -10 -47 -15
-49 -13 -7 7 -16 343 -10 360 5 13 15 15 49 10 24 -3 49 -7 56 -10z m456 -284
c-58 -106 -172 -178 -376 -236 -247 -70 -330 -131 -351 -254 -4 -22 -4 -22 -5
5 -3 74 70 161 173 204 28 11 111 39 185 62 74 22 162 55 195 72 77 41 156
119 181 180 10 26 20 40 22 32 2 -8 -9 -37 -24 -65z m-963 -47 c13 -16 12 -17
-3 -4 -17 13 -22 21 -14 21 2 0 10 -8 17 -17z m748 -233 c10 -16 21 -27 25
-22 4 4 7 0 5 -8 -1 -8 6 -42 15 -74 34 -111 -1 -228 -89 -300 -23 -19 -106
-65 -186 -103 -109 -53 -153 -79 -181 -110 -44 -50 -57 -111 -35 -164 l14 -34
-5 51 c-10 112 38 166 212 239 206 86 280 158 306 297 l9 53 -4 -51 c-2 -29
-14 -73 -27 -100 -38 -82 -96 -127 -275 -215 -177 -86 -202 -108 -210 -183 -6
-45 9 -84 53 -143 l24 -32 -22 -15 c-12 -9 -26 -16 -31 -16 -12 0 -41 34 -83
98 -19 29 -39 50 -43 47 -27 -16 -28 114 -2 170 29 65 112 132 238 191 62 29
128 65 147 79 49 37 80 105 73 160 -2 27 0 46 6 48 17 5 -27 70 -61 90 -17 9
-38 17 -48 17 -28 0 -7 14 59 37 83 29 94 28 116 -7z m-244 -189 c0 -79 -3
-148 -7 -154 -4 -7 -8 53 -8 133 0 181 -15 168 -19 -17 -2 -114 -5 -139 -19
-150 -36 -27 -40 -15 -41 165 l-2 139 38 16 c21 9 43 15 48 13 6 -2 10 -59 10
-145z m158 -386 c10 -14 16 -29 13 -33 -2 -4 0 -14 6 -22 8 -12 9 -12 4 3 -3
10 -2 16 3 13 5 -3 11 -15 14 -26 3 -11 2 -18 -3 -15 -4 3 -10 -29 -12 -69 -5
-115 -36 -150 -243 -276 -58 -35 -112 -106 -102 -132 3 -8 6 -6 6 4 1 26 68
95 120 125 115 65 184 117 211 158 11 17 20 24 20 17 0 -25 -105 -117 -180
-157 -153 -82 -185 -135 -150 -246 11 -35 20 -66 20 -68 0 -3 -14 8 -31 25
-65 61 -86 152 -50 222 25 47 67 87 163 151 90 59 128 108 128 163 0 21 5 38
10 38 15 0 -6 39 -43 77 l-30 32 44 20 c57 25 61 25 82 -4z m-173 -150 c0 -94
-2 -106 -22 -124 -11 -11 -25 -18 -30 -15 -4 3 -8 53 -8 111 0 89 3 108 18
119 37 29 42 19 42 -91z m227 -57 c-3 -8 -6 -5 -6 6 -1 11 2 17 5 13 3 -3 4
-12 1 -19z m-109 -270 c23 -49 39 -112 22 -88 -5 8 -10 23 -10 32 0 9 -3 19
-7 21 -5 3 -7 -16 -5 -41 5 -67 -60 -203 -85 -178 -3 3 4 29 17 56 25 53 30
96 17 145 -5 22 -5 26 3 15 6 -10 10 -11 10 -3 0 7 -11 20 -25 29 -31 20 -31
28 -2 42 36 18 44 14 65 -30z m-132 -197 c-8 -194 -15 -255 -27 -226 -13 33
-11 379 3 393 26 26 31 -3 24 -167z"/>
<path d="M5414 5311 c19 -35 21 -90 5 -124 -25 -55 -116 -74 -177 -37 -32 20
-33 20 -22 1 27 -51 122 -69 181 -34 28 17 69 87 69 118 0 29 -28 83 -50 95
-21 11 -21 11 -6 -19z"/>
<path d="M6468 4713 c6 -2 18 -2 25 0 6 3 1 5 -13 5 -14 0 -19 -2 -12 -5z"/>
<path d="M4790 4480 c-9 -6 -10 -10 -3 -10 6 0 15 5 18 10 8 12 4 12 -15 0z"/>
<path d="M4934 4285 c-9 -24 3 -44 31 -51 45 -11 75 35 36 56 -28 15 -61 12
-67 -5z m51 -15 c3 -5 1 -10 -4 -10 -6 0 -11 5 -11 10 0 6 2 10 4 10 3 0 8 -4
11 -10z"/>
<path d="M5657 4285 c-24 -17 -18 -49 9 -53 28 -4 69 30 61 51 -8 20 -45 22
-70 2z"/>
<path d="M5775 4194 c-56 -26 -46 -33 13 -8 49 20 93 20 126 -1 21 -14 25 -15
21 -3 -8 20 -49 38 -83 37 -15 0 -49 -11 -77 -25z"/>
<path d="M5356 3519 c-6 -137 -4 -171 8 -158 7 6 11 298 5 304 -3 3 -9 -63
-13 -146z"/>
<path d="M5343 2380 c0 -41 2 -58 4 -37 2 20 2 54 0 75 -2 20 -4 3 -4 -38z"/>
<path d="M4343 7324 c-7 -3 -13 -12 -13 -20 0 -12 4 -12 20 -4 13 7 113 10
277 10 485 -1 898 3 838 9 -77 8 -1106 12 -1122 5z"/>
<path d="M6850 7096 c0 -2 8 -10 18 -17 15 -13 16 -12 3 4 -13 16 -21 21 -21
13z"/>
<path d="M7067 6755 c9 -19 18 -33 21 -31 4 5 -26 66 -33 66 -3 0 3 -16 12
-35z"/>
<path d="M7252 5975 c0 -16 2 -22 5 -12 2 9 2 23 0 30 -3 6 -5 -1 -5 -18z"/>
<path d="M9808 5816 c-90 -32 -127 -56 -188 -123 -110 -120 -132 -199 -135
-476 -1 -114 2 -202 7 -195 6 11 8 11 8 0 0 -10 3 -10 14 0 14 13 11 33 -3 24
-4 -3 -8 1 -8 9 0 8 4 12 9 9 4 -3 8 3 9 13 0 10 5 2 11 -17 l10 -35 13 24 c7
13 14 19 16 12 6 -16 49 -23 51 -8 0 7 2 17 2 22 3 18 25 51 26 37 0 -7 5 -10
12 -6 7 4 8 3 4 -5 -4 -6 -11 -9 -16 -6 -5 3 -11 1 -15 -4 -3 -5 2 -14 11 -19
22 -12 56 -3 47 12 -11 17 -12 37 -2 30 5 -3 7 -8 5 -12 -2 -4 3 -13 11 -21
13 -11 14 -11 12 5 -2 11 1 25 5 33 7 11 5 13 -7 8 -24 -9 -21 0 4 14 15 8 19
8 15 0 -4 -6 -3 -11 3 -11 5 0 13 5 16 10 4 6 11 8 16 4 5 -3 7 -9 4 -14 -3
-5 -1 -12 5 -15 8 -5 8 -11 1 -19 -8 -9 -7 -13 4 -13 8 0 12 3 10 7 -3 4 4 15
14 24 13 12 21 14 26 6 3 -5 11 -7 17 -4 6 4 8 2 4 -4 -3 -6 -15 -9 -25 -7
-10 2 -18 -3 -18 -10 0 -7 6 -12 13 -11 21 3 45 29 40 43 -3 8 -1 11 4 8 6 -3
10 -14 10 -23 0 -13 2 -14 9 -4 4 8 12 13 17 13 5 0 9 7 10 17 3 52 8 50 14
-8 5 -53 11 223 15 653 l0 52 -35 3 c-19 1 -65 -9 -102 -22z m94 -671 c3 -13
1 -22 -3 -19 -9 5 -13 44 -5 44 2 0 6 -11 8 -25z m-288 -71 c3 -8 2 -12 -4 -9
-6 3 -10 1 -10 -6 0 -7 -2 -10 -5 -7 -5 5 4 38 10 38 2 0 6 -7 9 -16z"/>
<path d="M7430 5606 c0 -25 -57 -262 -81 -336 -35 -109 -41 -121 -120 -287
-33 -67 -59 -126 -59 -131 0 -5 20 -15 44 -21 56 -14 59 -14 50 2 -4 6 1 5 12
-4 18 -15 59 -15 50 0 -7 10 56 7 73 -3 9 -6 12 -5 8 1 -3 5 0 10 8 10 20 0
14 -20 -10 -34 -15 -9 -16 -12 -4 -13 23 0 39 21 39 51 0 15 4 30 9 33 4 3 6
-5 4 -17 -3 -17 0 -23 16 -24 12 -1 19 2 17 6 -3 4 1 8 8 8 7 0 13 -6 14 -14
1 -7 3 -20 4 -27 1 -11 6 -12 19 -6 12 7 19 6 22 -3 3 -6 4 -2 4 10 -1 15 -5
19 -11 13 -14 -14 -23 -12 -30 6 -4 12 -2 15 9 11 8 -4 17 -3 19 2 8 13 61 6
58 -8 -1 -7 2 -10 8 -6 6 3 8 11 5 16 -4 5 1 9 9 9 10 0 13 -6 10 -17 -5 -14
-4 -15 4 -4 13 18 4 41 -12 35 -7 -3 -19 2 -26 11 -11 13 -10 14 4 9 11 -4 15
-2 13 7 -2 8 -2 11 0 6 3 -4 10 -4 15 -1 6 4 8 3 5 -3 -4 -6 6 -21 21 -34 18
-16 22 -18 12 -5 -14 18 -13 19 2 13 10 -3 20 -1 24 5 5 7 2 8 -6 3 -8 -5 -11
-4 -6 3 4 7 14 6 33 -3 17 -9 31 -11 38 -5 17 14 27 -1 12 -19 -10 -14 -10
-14 4 -4 9 7 19 9 23 5 4 -4 6 0 4 8 -2 8 3 14 10 12 8 -1 11 2 6 9 -5 9 -1
10 14 7 15 -4 22 -2 22 8 0 8 5 14 11 14 5 0 8 -4 5 -9 -4 -5 -3 -17 0 -26 6
-14 9 -12 24 10 l18 27 16 -24 c10 -13 17 -17 15 -8 -3 30 1 41 14 34 8 -5 7
-2 -2 9 -9 11 -18 14 -25 8 -6 -5 -22 -12 -35 -16 -18 -5 -22 -4 -16 5 5 9 4
11 -3 6 -17 -10 -15 11 4 39 9 13 12 30 8 36 -4 8 -3 9 4 5 15 -9 10 -45 -9
-58 -11 -8 -11 -9 4 -4 9 3 17 0 17 -6 0 -7 6 -3 14 8 13 17 13 22 -2 44 -9
14 -45 72 -80 130 -144 237 -199 316 -272 391 -55 56 -130 111 -130 95z m393
-620 c3 3 4 -2 2 -13 -2 -10 -4 -22 -4 -28 -1 -5 -6 -3 -11 5 -9 13 -10 13
-10 0 0 -13 -2 -13 -11 0 -9 13 -10 12 -5 -3 3 -10 2 -16 -4 -12 -6 4 -7 -1
-4 -12 6 -15 4 -15 -9 2 -9 11 -17 15 -17 8 0 -23 45 -39 57 -21 4 7 1 8 -7 3
-8 -5 -11 -3 -9 4 3 7 7 11 10 9 3 -2 12 2 20 9 12 10 15 8 17 -13 1 -15 -4
-24 -12 -24 -7 0 -19 -7 -26 -15 -9 -10 -16 -12 -25 -5 -8 6 -16 5 -25 -3 -10
-9 -11 -9 -5 1 5 9 2 12 -10 10 -11 -2 -19 4 -20 14 -2 10 2 15 10 12 7 -3 15
5 18 17 4 13 9 20 13 16 8 -8 40 34 36 47 -2 5 3 4 11 -2 8 -7 16 -9 20 -6z
m92 -15 c3 -5 2 -12 -3 -15 -5 -3 -9 1 -9 9 0 17 3 19 12 6z m18 -56 c-3 -9
-8 -14 -10 -11 -3 3 -2 9 2 15 9 16 15 13 8 -4z m-257 -22 c-10 -11 -19 -7
-22 10 -2 15 0 16 12 6 8 -6 12 -14 10 -16z m-99 0 c-4 -3 -2 -12 5 -20 6 -7
8 -16 4 -20 -3 -3 -6 0 -6 8 0 12 -2 11 -10 -1 -8 -11 -9 -9 -6 10 6 32 5 30
13 30 3 0 3 -3 0 -7z m313 3 c0 -3 -4 -8 -10 -11 -5 -3 -10 -1 -10 4 0 6 5 11
10 11 6 0 10 -2 10 -4z m-350 -31 c-6 -7 -6 -16 -2 -21 4 -5 -2 -1 -14 9 -11
9 -24 14 -29 10 -4 -5 -6 -3 -2 3 3 5 17 10 31 10 18 0 22 -3 16 -11z"/>
<path d="M7796 4972 c-3 -5 1 -9 9 -9 8 0 12 4 9 9 -3 4 -7 8 -9 8 -2 0 -6 -4
-9 -8z"/>
<path d="M2233 5290 c-34 -14 -28 -21 7 -9 17 6 30 13 30 15 0 6 -12 4 -37 -6z"/>
<path d="M2125 5239 c-58 -30 -145 -88 -145 -97 0 -2 15 5 33 16 17 12 51 31
75 43 23 12 42 26 42 31 0 4 8 8 18 8 9 0 26 7 36 15 32 24 5 17 -59 -16z"/>
<path d="M9743 5124 c-21 -15 -22 -50 0 -37 6 4 8 0 4 -11 -4 -10 -3 -15 3
-11 6 3 10 13 10 21 0 8 5 14 11 14 8 0 9 4 0 13 -6 8 -8 17 -4 20 11 12 -1 7
-24 -9z m17 -14 c0 -5 -8 -10 -17 -10 -15 0 -16 2 -3 10 19 12 20 12 20 0z"/>
<path d="M1914 5108 c-46 -36 -68 -58 -58 -58 5 0 21 10 36 23 14 12 35 27 45
33 10 7 15 14 12 18 -3 3 -19 -4 -35 -16z"/>
<path d="M1734 4947 c-44 -45 -97 -103 -119 -128 -56 -67 -134 -200 -127 -217
4 -11 1 -13 -8 -7 -9 5 -11 4 -6 -3 4 -7 3 -12 -2 -12 -13 0 -86 -162 -110
-245 -31 -106 -60 -260 -66 -350 -4 -65 -4 -71 4 -33 4 26 11 69 13 95 3 27 8
55 11 63 3 8 8 31 11 50 10 55 12 64 18 80 2 8 24 71 47 140 24 69 60 153 81
187 22 34 39 65 39 69 0 3 10 20 23 37 30 43 87 138 87 146 0 3 9 12 20 19 11
7 20 19 20 27 0 8 6 15 13 15 6 0 23 16 36 35 13 19 41 51 63 71 22 19 38 37
36 40 -3 2 -40 -33 -84 -79z"/>
<path d="M7459 4827 c-1 -4 -2 -12 -3 -17 0 -6 -8 -15 -16 -21 -11 -7 -7 -8
15 -3 40 9 42 12 22 31 -9 10 -18 14 -18 10z"/>
<path d="M6695 4630 c-3 -6 1 -7 9 -4 18 7 21 14 7 14 -6 0 -13 -4 -16 -10z"/>
<path d="M6622 4615 c-34 -8 -60 -22 -69 -35 -9 -12 -36 -35 -61 -51 -34 -21
-40 -29 -25 -29 11 0 40 18 64 40 24 22 64 48 89 57 36 13 80 37 60 32 -3 -1
-29 -7 -58 -14z"/>
<path d="M4175 4510 c3 -5 11 -10 16 -10 6 0 7 5 4 10 -3 6 -11 10 -16 10 -6
0 -7 -4 -4 -10z"/>
<path d="M7290 4368 c41 -41 73 -92 102 -160 20 -50 21 -72 25 -393 3 -221 1
-362 -6 -400 -28 -155 -144 -291 -291 -341 -29 -10 -122 -14 -350 -15 -171 -1
-313 -5 -315 -9 -2 -4 129 -8 293 -9 322 -2 371 4 455 54 131 77 210 194 229
341 6 49 7 193 3 383 -7 322 -15 380 -60 456 -30 52 -93 125 -108 125 -6 0 4
-15 23 -32z"/>
<path d="M9888 4148 c9 -11 10 -18 2 -23 -5 -3 -10 -1 -10 5 0 7 -5 6 -14 -2
-8 -7 -14 -15 -14 -18 0 -3 -1 -16 -2 -30 -2 -24 -3 -24 -10 5 l-8 30 -2 -30
c-1 -26 -3 -27 -10 -10 -8 19 -9 19 -9 1 -1 -16 -3 -17 -18 -5 -9 8 -14 9 -10
3 3 -6 0 -11 -8 -11 -10 0 -11 5 -4 18 6 12 5 20 -3 25 -7 4 -10 4 -6 -1 4 -4
3 -14 -3 -22 -14 -16 -33 -18 -23 -1 4 7 3 8 -4 4 -7 -4 -12 -14 -12 -22 0 -8
-5 -12 -10 -9 -6 4 -7 11 -4 17 4 7 2 8 -5 4 -6 -4 -9 -12 -6 -17 4 -5 3 -9
-2 -10 -4 0 -16 -2 -26 -4 -9 -2 -15 1 -12 5 3 5 1 11 -4 14 -12 8 -32 -17
-34 -43 0 -11 -5 -18 -9 -15 -4 3 -4 12 -1 21 6 15 5 16 -9 3 -9 -8 -14 -17
-13 -20 2 -3 -1 -12 -7 -20 -8 -12 -9 -12 -4 3 3 9 3 17 -1 17 -3 0 -12 -8
-19 -17 -13 -17 -14 -17 -7 2 6 17 5 18 -8 5 -9 -8 -14 -25 -13 -39 2 -18 2
-20 -2 -6 -4 11 -11 26 -18 34 -21 27 -25 -68 -25 -757 -1 -542 -4 -683 -13
-680 -16 5 -112 145 -260 378 -314 492 -401 627 -419 648 -10 12 -19 28 -19
35 0 7 -7 22 -16 33 -14 18 -14 18 -3 -6 12 -24 11 -24 -6 -10 -17 13 -18 13
-13 -1 3 -9 2 -22 -4 -30 -8 -11 -9 -10 -4 3 3 11 -2 22 -14 28 -20 11 -23 8
-55 -35 -9 -11 -15 -15 -14 -10 1 6 -1 18 -6 28 -7 16 -10 15 -30 -9 -13 -15
-27 -24 -33 -20 -6 3 -13 0 -16 -6 -4 -7 -4 -3 -2 10 2 12 0 20 -5 16 -5 -3
-9 -11 -9 -19 0 -19 -17 -28 -26 -14 -4 8 -3 9 4 5 17 -10 15 -1 -2 13 -12 10
-14 8 -12 -12 2 -14 -2 -24 -10 -24 -7 0 -11 4 -8 9 9 13 -31 4 -60 -15 -15
-10 -30 -16 -35 -13 -4 3 -17 -2 -27 -10 -10 -9 -13 -12 -5 -8 10 5 12 3 7 -5
-6 -9 -11 -9 -24 1 -13 11 -15 10 -10 -10 4 -12 2 -20 -2 -17 -5 3 -12 0 -16
-6 -4 -8 -3 -9 4 -5 11 6 17 -12 13 -37 -1 -4 9 -3 21 4 19 9 21 9 11 -2 -15
-15 -18 -43 -4 -35 5 3 8 0 8 -7 -2 -14 16 -43 327 -537 51 -80 134 -212 186
-295 310 -496 522 -656 913 -687 118 -10 140 -9 148 3 6 9 8 408 5 1104 -6
1261 -5 1168 -15 1135 -4 -14 -14 -24 -21 -22 -7 2 -21 -4 -30 -13 -17 -16
-18 -15 -15 2 2 10 4 23 4 28 1 6 6 3 11 -5 8 -12 10 -12 10 -1 0 11 3 11 15
1 10 -9 15 -9 15 -1 0 6 -5 11 -11 11 -5 0 -8 4 -5 9 3 5 -2 15 -12 22 -15 13
-16 12 -4 -3z m-245 -108 c-3 -12 -8 -19 -11 -16 -5 6 5 36 12 36 2 0 2 -9 -1
-20z m-1183 -484 c0 -3 -15 -14 -32 -26 l-33 -22 30 26 c31 27 35 29 35 22z
m-78 -58 c-8 -8 -9 -4 -5 13 4 13 8 18 11 10 2 -7 -1 -18 -6 -23z"/>
<path d="M9666 4067 c3 -10 9 -15 12 -12 3 3 0 11 -7 18 -10 9 -11 8 -5 -6z"/>
<path d="M9561 4034 c0 -11 3 -14 6 -6 3 7 2 16 -1 19 -3 4 -6 -2 -5 -13z"/>
<path d="M1292 3740 c0 -14 2 -19 5 -12 2 6 2 18 0 25 -3 6 -5 1 -5 -13z"/>
<path d="M8586 3619 c2 -4 -1 -9 -8 -11 -7 -3 -8 -7 -2 -11 5 -3 15 2 21 12 9
14 8 18 -3 18 -7 0 -11 -4 -8 -8z"/>
<path d="M8305 3520 c-3 -5 -1 -10 4 -10 6 0 11 5 11 10 0 6 -2 10 -4 10 -3 0
-8 -4 -11 -10z"/>
<path d="M3400 3250 c12 -16 24 -30 26 -30 3 0 -4 14 -16 30 -12 17 -24 30
-26 30 -3 0 4 -13 16 -30z"/>
<path d="M3474 3161 c4 -5 21 -20 39 -32 l32 -23 -20 23 c-22 25 -62 51 -51
32z"/>
<path d="M6070 3028 c0 -19 2 -20 10 -8 13 19 13 30 0 30 -5 0 -10 -10 -10
-22z"/>
<path d="M6120 3046 c0 -10 28 -13 41 -5 10 6 7 9 -13 9 -16 0 -28 -2 -28 -4z"/>
<path d="M7600 2974 c-55 -72 -151 -146 -273 -208 -51 -26 -140 -50 -224 -61
-29 -4 -53 -8 -53 -9 0 -1 9 -64 20 -141 24 -174 26 -367 3 -512 -9 -59 -17
-121 -17 -138 l-1 -30 70 3 c156 7 284 61 386 162 74 74 113 145 135 251 18
85 16 720 -2 726 -5 2 -26 -17 -44 -43z"/>
<path d="M1070 2890 c6 -11 13 -20 16 -20 2 0 0 9 -6 20 -6 11 -13 20 -16 20
-2 0 0 -9 6 -20z"/>
<path d="M1153 2755 c9 -16 30 -46 47 -65 28 -32 28 -30 -6 20 -46 68 -61 84
-41 45z"/>
<path d="M6408 2674 c-3 -3 1 -26 9 -52 7 -26 20 -90 28 -142 68 -445 -114
-859 -649 -1480 -124 -143 -398 -420 -415 -420 -8 0 -37 24 -65 53 -192 200
-249 261 -311 331 -39 43 -69 84 -69 92 1 8 -2 12 -6 9 -20 -12 -239 265 -373
475 -59 92 -167 312 -195 400 -25 77 -47 180 -57 267 l-7 62 -86 -75 c-48 -41
-133 -105 -189 -142 l-103 -67 6 -35 c10 -60 64 -221 110 -324 104 -236 299
-529 537 -805 57 -66 85 -106 78 -110 -15 -10 83 -116 356 -388 242 -240 287
-273 374 -273 31 0 62 9 97 28 52 28 344 297 364 336 9 17 -102 -86 -292 -275
-90 -89 -203 -102 -285 -34 l-30 25 45 -25 c65 -36 132 -34 193 5 55 35 308
279 491 475 524 561 777 968 882 1421 36 156 40 386 10 562 l-20 112 -211 0
c-117 0 -214 -2 -217 -6z m-1683 -2025 c28 -33 153 -162 279 -285 126 -124
226 -227 223 -230 -6 -7 -567 552 -567 566 0 20 16 8 65 -51z"/>
<path d="M6862 2650 c0 -19 2 -27 5 -17 2 9 2 25 0 35 -3 9 -5 1 -5 -18z"/>
<path d="M4319 2618 c-50 -65 -55 -77 -14 -33 36 39 60 75 51 75 -2 0 -19 -19
-37 -42z"/>
<path d="M1230 2646 c0 -2 8 -10 18 -17 15 -13 16 -12 3 4 -13 16 -21 21 -21
13z"/>
<path d="M1280 2585 c13 -14 26 -25 28 -25 3 0 -5 11 -18 25 -13 14 -26 25
-28 25 -3 0 5 -11 18 -25z"/>
<path d="M1350 2513 c33 -42 162 -163 190 -177 8 -4 4 2 -10 14 -14 11 -67 62
-119 113 -52 51 -79 73 -61 50z"/>
<path d="M4245 2527 c-5 -7 -19 -24 -30 -37 -11 -14 -3 -10 18 9 20 19 37 36
37 38 0 8 -16 1 -25 -10z"/>
<path d="M6071 2335 c-1 -27 -3 -104 -5 -170 -5 -141 -23 -202 -91 -294 -98
-133 -195 -171 -441 -171 l-121 0 -6 -52 c-10 -86 -72 -123 -130 -78 -38 30
-45 24 -12 -10 56 -58 137 -26 150 59 11 67 8 65 176 72 85 4 168 11 184 16
109 36 217 133 267 240 32 66 33 73 36 223 2 85 2 169 -1 185 -3 21 -5 15 -6
-20z"/>
<path d="M1567 2309 c7 -7 15 -10 18 -7 3 3 -2 9 -12 12 -14 6 -15 5 -6 -5z"/>
<path d="M1612 2274 c10 -10 20 -15 24 -12 3 4 -5 12 -18 18 -22 12 -22 12 -6
-6z"/>
<path d="M1710 2206 c0 -2 7 -7 16 -10 8 -3 12 -2 9 4 -6 10 -25 14 -25 6z"/>
<path d="M1750 2187 c0 -7 95 -67 105 -67 5 0 -11 13 -36 28 -66 42 -69 44
-69 39z"/>
<path d="M1960 2065 c14 -8 30 -14 35 -14 6 0 -1 6 -15 14 -14 8 -29 14 -35
14 -5 0 1 -6 15 -14z"/>
<path d="M4351 2054 c0 -11 3 -14 6 -6 3 7 2 16 -1 19 -3 4 -6 -2 -5 -13z"/>
<path d="M4706 2005 c9 -58 40 -113 98 -173 48 -51 130 -103 158 -102 7 1 -7
10 -30 22 -71 34 -148 112 -180 181 -56 121 -53 117 -46 72z"/>
<path d="M6852 1945 c-7 -32 -10 -60 -8 -62 6 -6 28 95 24 109 -3 7 -10 -14
-16 -47z"/>
<path d="M2240 1961 c8 -5 31 -11 50 -15 24 -4 28 -3 15 2 -31 14 -83 24 -65
13z"/>
<path d="M2683 1883 c9 -2 25 -2 35 0 9 3 1 5 -18 5 -19 0 -27 -2 -17 -5z"/>
<path d="M4410 1865 c0 -5 5 -17 10 -25 5 -8 10 -10 10 -5 0 6 -5 17 -10 25
-5 8 -10 11 -10 5z"/>
<path d="M4430 1811 c0 -6 4 -13 10 -16 6 -3 7 1 4 9 -7 18 -14 21 -14 7z"/>
<path d="M4450 1776 c0 -11 30 -66 36 -66 2 0 -3 15 -12 33 -19 36 -24 44 -24
33z"/>
<path d="M4490 1696 c0 -10 51 -96 57 -96 3 0 -7 21 -23 48 -31 54 -34 58 -34
48z"/>
<path d="M5212 1693 c9 -2 21 -16 27 -31 l9 -27 1 33 c1 29 -2 32 -26 31 -16
-1 -21 -3 -11 -6z"/>
<path d="M3980 1687 c0 -11 39 -97 44 -97 3 0 -4 21 -15 47 -20 46 -29 62 -29
50z"/>
<path d="M4560 1570 c44 -84 220 -332 257 -361 21 -16 27 -26 -68 101 -35 47
-91 126 -123 175 -63 95 -87 127 -66 85z"/>
<path d="M6645 1430 c-9 -16 -13 -30 -11 -30 3 0 12 14 21 30 9 17 13 30 11
30 -3 0 -12 -13 -21 -30z"/>
<path d="M4120 1405 c0 -15 18 -40 24 -34 3 3 -1 14 -9 25 -8 10 -14 15 -15 9z"/>
<path d="M6614 1378 c-5 -7 -32 -50 -61 -95 -29 -46 -51 -83 -48 -83 5 0 97
136 116 171 11 21 5 26 -7 7z"/>
<path d="M4211 1260 c33 -69 293 -409 304 -398 2 2 -9 19 -26 38 -39 44 -163
208 -212 280 -21 30 -47 66 -58 80 l-20 25 12 -25z"/>
<path d="M4857 1154 c18 -22 40 -47 50 -55 10 -8 3 4 -14 27 -18 22 -40 47
-50 55 -10 8 -3 -4 14 -27z"/>
<path d="M6457 1140 c-21 -27 -34 -50 -30 -50 7 0 32 34 66 87 19 31 -2 9 -36
-37z"/>
<path d="M6359 1008 c-18 -24 -35 -48 -38 -53 -8 -15 36 34 60 68 33 44 14 31
-22 -15z"/>
<path d="M4975 1020 c10 -11 20 -20 23 -20 3 0 -3 9 -13 20 -10 11 -20 20 -23
20 -3 0 3 -9 13 -20z"/>
<path d="M5050 936 c0 -2 8 -10 18 -17 15 -13 16 -12 3 4 -13 16 -21 21 -21
13z"/>
<path d="M6269 893 c-13 -16 -12 -17 4 -4 9 7 17 15 17 17 0 8 -8 3 -21 -13z"/>
<path d="M4529 833 c5 -10 29 -36 52 -58 l43 -40 -48 58 c-49 58 -64 71 -47
40z"/>
<path d="M6214 828 l-19 -23 23 19 c12 11 22 21 22 23 0 8 -8 2 -26 -19z"/>
<path d="M5180 796 c0 -2 8 -10 18 -17 15 -13 16 -12 3 4 -13 16 -21 21 -21
13z"/>
<path d="M6139 743 c-13 -16 -36 -41 -49 -58 -24 -29 -25 -29 -1 -10 24 20 86
95 79 95 -2 0 -15 -12 -29 -27z"/>
<path d="M5971 557 c-80 -87 -81 -88 -17 -27 58 56 114 120 104 120 -2 0 -41
-42 -87 -93z"/>
</g>
</svg>
